<svg width="125" height="40" viewBox="0 0 125 40" fill="none" xmlns="http://www.w3.org/2000/svg">
<path d="M116.355 22.6322C116.378 22.6322 116.41 22.6322 116.433 22.6322C121.1 22.6322 124.894 19.3424 124.894 15.2971C124.894 15.2971 124.894 13.0933 124.894 13.0461C124.894 9.00075 121.1 5.71094 116.433 5.71094C111.766 5.71094 107.973 9.00075 107.973 13.0461C107.973 13.0933 107.973 22.6322 107.973 22.6322H116.355Z" fill="#0D352A"/>
<path d="M113.048 17.4842C112.655 17.4842 112.293 17.4212 111.97 17.2953C111.647 17.1693 111.387 16.9726 111.191 16.7129C110.994 16.4531 110.892 16.1226 110.884 15.7291H111.868C111.868 15.8943 111.915 16.0518 112.009 16.1934C112.104 16.3351 112.237 16.4453 112.411 16.524C112.584 16.6027 112.796 16.6499 113.048 16.6499C113.394 16.6499 113.662 16.5712 113.843 16.4138C114.024 16.2564 114.119 16.0596 114.119 15.8235C114.119 15.6346 114.063 15.4772 113.953 15.3513C113.843 15.2254 113.694 15.1309 113.505 15.068C113.316 15.005 113.095 14.9735 112.851 14.9735H112.379V14.155H112.851C113.166 14.155 113.434 14.0999 113.646 13.9818C113.859 13.8638 113.969 13.6828 113.969 13.4467C113.969 13.242 113.882 13.0768 113.717 12.9587C113.552 12.8406 113.324 12.7855 113.048 12.7855C112.733 12.7855 112.489 12.8564 112.316 13.0059C112.143 13.1555 112.049 13.3365 112.033 13.549H111.049C111.065 13.2105 111.159 12.9193 111.325 12.6832C111.49 12.4471 111.726 12.2582 112.017 12.1323C112.316 11.9985 112.655 11.9355 113.048 11.9355C113.457 11.9355 113.804 11.9985 114.087 12.1244C114.37 12.2504 114.583 12.4235 114.732 12.6439C114.874 12.8643 114.945 13.1004 114.945 13.3601C114.945 13.6592 114.85 13.9189 114.669 14.1314C114.488 14.3439 114.26 14.4855 113.985 14.5564C114.315 14.6115 114.591 14.761 114.795 14.9893C115.008 15.2254 115.11 15.5166 115.11 15.8707C115.11 16.1698 115.031 16.4374 114.874 16.6892C114.717 16.9332 114.481 17.13 114.181 17.2795C113.867 17.4055 113.489 17.4842 113.048 17.4842Z" fill="white"/>
<path d="M115.779 16.807C115.779 16.4843 116.039 16.2246 116.362 16.2246H116.44C116.763 16.2246 117.023 16.4843 117.023 16.807C117.023 17.1297 116.763 17.3894 116.44 17.3894H116.362C116.047 17.3894 115.779 17.1297 115.779 16.807Z" fill="white"/>
<path d="M119.762 17.4843C119.298 17.4843 118.897 17.3663 118.566 17.138C118.236 16.9098 117.984 16.5871 117.811 16.1621C117.637 15.745 117.551 15.257 117.551 14.6982C117.551 14.1394 117.637 13.6515 117.811 13.2343C117.984 12.8172 118.236 12.4945 118.566 12.2584C118.897 12.0302 119.298 11.9121 119.762 11.9121C120.235 11.9121 120.636 12.0302 120.959 12.2584C121.289 12.4866 121.541 12.8093 121.714 13.2343C121.887 13.6515 121.974 14.1394 121.974 14.6982C121.974 15.257 121.887 15.745 121.714 16.1621C121.541 16.5792 121.289 16.9019 120.959 17.138C120.636 17.3663 120.235 17.4843 119.762 17.4843ZM119.762 16.5792C120.187 16.5792 120.494 16.4218 120.691 16.0991C120.88 15.7843 120.982 15.3121 120.982 14.6903C120.982 14.0765 120.888 13.6042 120.691 13.2894C120.502 12.9667 120.187 12.8093 119.762 12.8093C119.345 12.8093 119.038 12.9667 118.842 13.2894C118.645 13.6121 118.55 14.0765 118.55 14.6903C118.55 15.3121 118.645 15.7765 118.842 16.0991C119.038 16.4218 119.345 16.5792 119.762 16.5792Z" fill="white"/>
<path d="M47.693 29.1867C46.4495 29.1867 45.3555 28.9664 44.4032 28.5178C43.4509 28.0691 42.7111 27.4395 42.168 26.6053C41.6328 25.7789 41.3652 24.7793 41.3652 23.6145V22.9691H44.356V23.6145C44.356 24.5826 44.6551 25.3067 45.2532 25.7867C45.8513 26.2668 46.662 26.5108 47.693 26.5108C48.7398 26.5108 49.5111 26.3062 50.0305 25.8891C50.5421 25.4719 50.8018 24.9446 50.8018 24.2992C50.8018 23.8506 50.6759 23.4965 50.424 23.221C50.1722 22.9455 49.8023 22.7173 49.3222 22.5441C48.8421 22.371 48.2518 22.2057 47.5592 22.0483L47.0319 21.9303C45.93 21.6863 44.9777 21.3715 44.1907 21.0016C43.4037 20.6238 42.7976 20.1279 42.3726 19.5141C41.9476 18.9002 41.743 18.1053 41.743 17.1215C41.743 16.1377 41.9791 15.3034 42.4435 14.6029C42.9078 13.9025 43.5689 13.3673 44.4189 12.9895C45.2689 12.6117 46.2685 12.4229 47.4254 12.4229C48.5745 12.4229 49.5976 12.6196 50.4949 13.0131C51.3921 13.4066 52.1004 13.9891 52.612 14.7604C53.1236 15.5316 53.3833 16.5076 53.3833 17.6724V18.365H50.3926V17.6724C50.3926 17.0585 50.2745 16.5627 50.0384 16.1849C49.8023 15.8071 49.456 15.5316 49.0152 15.3585C48.5666 15.1854 48.0393 15.0909 47.4254 15.0909C46.5046 15.0909 45.8277 15.2641 45.387 15.6104C44.9463 15.9566 44.7338 16.4289 44.7338 17.027C44.7338 17.4284 44.8361 17.7668 45.0407 18.0423C45.2453 18.3178 45.5601 18.546 45.9694 18.7349C46.3865 18.9159 46.9138 19.0812 47.5592 19.215L48.0865 19.333C49.2356 19.577 50.2351 19.8918 51.093 20.2775C51.943 20.6631 52.6041 21.1668 53.0842 21.7965C53.5564 22.4261 53.8004 23.2289 53.8004 24.2127C53.8004 25.1965 53.5486 26.0543 53.0527 26.802C52.5569 27.5497 51.8486 28.1321 50.9356 28.5492C50.0148 28.9821 48.9365 29.1867 47.693 29.1867Z" fill="#0D352A"/>
<path d="M56.1387 28.8711V17.4512H59.035V28.8632H56.1387V28.8711Z" fill="#0D352A"/>
<path d="M67.0054 29.1864C65.5179 29.1864 64.298 28.8637 63.3457 28.2183C62.3934 27.5729 61.8188 26.6521 61.6221 25.4558L64.2901 24.7632C64.4003 25.2984 64.5813 25.7234 64.8332 26.0304C65.085 26.3373 65.3998 26.5577 65.7776 26.6836C66.1554 26.8174 66.5647 26.8804 67.0054 26.8804C67.6823 26.8804 68.1781 26.7623 68.5008 26.5262C68.8235 26.2901 68.9809 25.991 68.9809 25.6368C68.9809 25.2827 68.8235 25.0151 68.5244 24.8183C68.2174 24.6294 67.7295 24.472 67.0526 24.3461L66.4073 24.228C65.6124 24.0785 64.8804 23.866 64.2193 23.5984C63.5582 23.3308 63.0309 22.9609 62.6295 22.4808C62.2281 22.0086 62.0313 21.3947 62.0313 20.6392C62.0313 19.5058 62.4485 18.6322 63.2748 18.0262C64.1012 17.4202 65.1952 17.1211 66.5411 17.1211C67.8161 17.1211 68.8707 17.4044 69.7207 17.9711C70.5628 18.5378 71.1137 19.2854 71.3813 20.2063L68.6897 21.0327C68.5637 20.4503 68.3198 20.0331 67.942 19.7892C67.5642 19.5452 67.0998 19.4192 66.5489 19.4192C65.998 19.4192 65.573 19.5137 65.2818 19.7104C64.9906 19.8993 64.8411 20.1669 64.8411 20.5054C64.8411 20.8753 64.9906 21.1429 65.2975 21.3239C65.6045 21.497 66.0216 21.6308 66.5411 21.7253L67.1864 21.8433C68.0443 22.0007 68.8235 22.1975 69.5239 22.4572C70.2244 22.7091 70.7753 23.0711 71.1846 23.5354C71.5938 23.9998 71.7906 24.6373 71.7906 25.4322C71.7906 26.6285 71.3577 27.5572 70.492 28.2026C69.6262 28.8637 68.4614 29.1864 67.0054 29.1864Z" fill="#0D352A"/>
<path d="M74.3262 28.8724V12.7617H77.2225V28.8724H74.3262Z" fill="#0D352A"/>
<path d="M85.4141 29.1864C84.2808 29.1864 83.2576 28.9581 82.3525 28.4938C81.4474 28.0373 80.7312 27.3683 80.2118 26.4947C79.6923 25.6211 79.4326 24.5665 79.4326 23.3387V22.9688C79.4326 21.741 79.6923 20.6864 80.2118 19.8128C80.7312 18.9392 81.4474 18.2702 82.3525 17.8137C83.2576 17.3572 84.2808 17.1211 85.4141 17.1211C86.5474 17.1211 87.5706 17.3493 88.4757 17.8137C89.3808 18.2702 90.097 18.9392 90.6164 19.8128C91.1359 20.6864 91.3956 21.741 91.3956 22.9688V23.3387C91.3956 24.5665 91.1359 25.6132 90.6164 26.4947C90.097 27.3683 89.3808 28.0373 88.4757 28.4938C87.5706 28.9581 86.5474 29.1864 85.4141 29.1864ZM85.4141 26.6128C86.3035 26.6128 87.0433 26.3216 87.6257 25.747C88.2081 25.1725 88.4993 24.3461 88.4993 23.2757V23.0475C88.4993 21.9771 88.2081 21.1507 87.6335 20.5762C87.059 20.0017 86.3192 19.7104 85.4141 19.7104C84.5247 19.7104 83.7849 20.0017 83.2025 20.5762C82.6201 21.1507 82.3289 21.9771 82.3289 23.0475V23.2757C82.3289 24.3461 82.6201 25.1725 83.2025 25.747C83.7849 26.3216 84.5247 26.6128 85.4141 26.6128Z" fill="#0D352A"/>
<path d="M93.0596 23.2048V22.8349C93.0596 21.6386 93.2957 20.6155 93.7758 19.7655C94.248 18.9155 94.8855 18.2622 95.6725 17.8058C96.4596 17.3571 97.3253 17.1289 98.2619 17.1289C99.3086 17.1289 100.096 17.3099 100.631 17.6798C101.166 18.0497 101.56 18.4354 101.804 18.8289H102.221V17.4516H105.078V30.8942C105.078 31.6733 104.849 32.303 104.385 32.7673C103.929 33.2317 103.307 33.4678 102.543 33.4678H94.9012V30.9335H101.528C101.961 30.9335 102.173 30.7053 102.173 30.2409V27.2738H101.756C101.607 27.5178 101.386 27.7696 101.111 28.0215C100.835 28.2733 100.466 28.4858 100.009 28.6511C99.5526 28.8164 98.9623 28.903 98.2619 28.903C97.3253 28.903 96.4596 28.6747 95.6725 28.2261C94.8855 27.7775 94.248 27.1243 93.7758 26.2664C93.2957 25.4243 93.0596 24.4011 93.0596 23.2048ZM99.0883 26.3845C99.9776 26.3845 100.725 26.1011 101.323 25.5345C101.922 24.9678 102.221 24.1729 102.221 23.1419V22.9136C102.221 21.8669 101.922 21.072 101.331 20.5053C100.741 19.9465 99.9934 19.6632 99.0883 19.6632C98.1989 19.6632 97.4512 19.9465 96.8531 20.5053C96.2549 21.0641 95.9559 21.8669 95.9559 22.9136V23.1419C95.9559 24.1729 96.2549 24.9678 96.8531 25.5345C97.4512 26.1011 98.1989 26.3845 99.0883 26.3845Z" fill="#0D352A"/>
<path d="M17.2508 0L0.00683594 0.00786845V20.0065H33.1175L17.2508 0Z" fill="url(#paint0_linear_5566_1518)"/>
<path d="M34.1181 21.9426H34.1023C34.1023 22.0606 34.1181 22.1708 34.1181 22.2889C34.1181 31.694 26.4602 39.344 17.063 39.344C7.65 39.3518 0 31.7019 0 22.2889C0 22.1708 0.0157405 22.0606 0.0157405 21.9426H0V17.0551C0 7.65 7.65 0 17.0551 0C26.4602 0 34.1102 7.65 34.1102 17.0551V21.9426H34.1181Z" fill="url(#paint1_linear_5566_1518)"/>
<path d="M18.6225 34.1974C18.6225 34.2052 18.6225 34.221 18.6225 34.2289C18.6225 35.0867 17.9221 35.7872 17.0642 35.7872C16.2063 35.7872 15.5059 35.0867 15.5059 34.2289C15.5059 34.221 15.5059 34.2052 15.5059 34.1974V33.7488C15.5059 32.8909 16.2063 32.1904 17.0642 32.1904C17.9221 32.1904 18.6225 32.8909 18.6225 33.7488V34.1974Z" fill="white"/>
<path d="M18.6225 5.57237C18.6225 5.58024 18.6225 5.59598 18.6225 5.60386C18.6225 6.46173 17.9221 7.16219 17.0642 7.16219C16.2063 7.16219 15.5059 6.46173 15.5059 5.60386C15.5059 5.59598 15.5059 5.58024 15.5059 5.57237V5.12376C15.5059 4.26589 16.2063 3.56543 17.0642 3.56543C17.9221 3.56543 18.6225 4.26589 18.6225 5.12376V5.57237Z" fill="white"/>
<path d="M24.7288 21.0292C22.9029 18.4005 19.2196 17.9912 16.095 17.8259C12.396 17.7394 11.5617 13.5681 14.6075 11.9153C14.6941 11.8759 14.7807 11.8366 14.8672 11.7972C14.8987 11.7815 14.9302 11.7736 14.9696 11.7579C15.0247 11.7343 15.0797 11.7185 15.1348 11.6949C15.1821 11.6792 15.2293 11.6634 15.2765 11.6477C15.3159 11.632 15.3552 11.6241 15.3946 11.6083C15.4654 11.5847 15.5284 11.569 15.5992 11.5533C15.6149 11.5454 15.6385 11.5454 15.6543 11.5375C15.7015 11.5296 15.7487 11.5139 15.7881 11.506L17.0552 9.32594L18.3617 11.569C19.8728 11.9783 21.0927 13.0801 21.2029 14.8352C21.2029 14.8509 21.2029 14.8588 21.2029 14.8746V17.4718H24.6737V16.7241L24.6659 16.7083C24.6816 15.0949 24.776 13.2375 23.7135 11.4824C22.2811 9.21576 19.7311 8.29492 16.9372 8.29492C14.1825 8.29492 11.7112 9.22363 10.2159 11.4431C8.7441 13.6389 8.93299 17.3931 11.0265 19.1324C14.0251 22.3908 21.8561 19.5732 22.1395 24.1458C22.1552 26.2472 20.4552 27.3412 18.4955 27.6875L17.0473 30.1116L15.5992 27.6954C15.0168 27.5931 14.4737 27.4357 14.0172 27.2232C12.7029 26.6486 11.9395 25.4917 11.9395 24.1222V21.525C11.9316 21.525 9.60197 21.525 8.75197 21.525C8.56308 21.525 8.45289 21.525 8.45289 21.525C8.42141 23.4847 8.29549 26.0741 9.42882 27.5458C11.727 31.2213 17.8029 31.6384 21.5571 30.0565C25.1223 28.7185 26.8853 24.1616 24.7288 21.0292Z" fill="white"/>
<defs>
<linearGradient id="paint0_linear_5566_1518" x1="-10.5772" y1="37.1462" x2="18.1029" y2="8.4661" gradientUnits="userSpaceOnUse">
<stop offset="0.0946251" stop-color="#035A00"/>
<stop offset="0.2433" stop-color="#048A36"/>
<stop offset="0.3961" stop-color="#05B667"/>
<stop offset="0.5127" stop-color="#06D286"/>
<stop offset="0.5781" stop-color="#06DC91"/>
</linearGradient>
<linearGradient id="paint1_linear_5566_1518" x1="-6.12393" y1="42.8594" x2="50.226" y2="-13.4905" gradientUnits="userSpaceOnUse">
<stop offset="0.0946251" stop-color="#0D352A"/>
<stop offset="0.1126" stop-color="#0D3D2F"/>
<stop offset="0.2773" stop-color="#0A8159"/>
<stop offset="0.4153" stop-color="#08B277"/>
<stop offset="0.5196" stop-color="#06D18A"/>
<stop offset="0.5781" stop-color="#06DC91"/>
</linearGradient>
</defs>
</svg>
